<svg width="1429" height="1429" version="1.1" xmlns="http://www.w3.org/2000/svg" desc="Created with imagetracer.js version 1.2.6" ><path fill="rgb(0,0,0)" stroke="rgb(0,0,0)" stroke-width="1" opacity="0" d="M 0 0 L 1429 0 L 1429 1429 L 0 1429 L 0 0 Z M 620 165 L 617 168 L 596 209 L 327 739 L 247 893 L 242 905 L 59 1262 L 60 1264 L 279 1264 L 290 1243 Q 289 1240 292 1241 L 291 1240 L 293 1239 L 292 1238 L 294 1237 L 293 1236 L 295 1235 L 294 1234 L 296 1233 L 295 1232 L 297 1231 L 296 1230 L 298 1229 L 297 1228 L 299 1227 L 298 1226 L 300 1225 L 299 1224 L 301 1223 L 300 1222 L 527 776 Q 526 773 529 774 L 529 772 L 560 710 L 715 407 L 1150 1263 L 1151 1264 L 1370 1264 L 1367 1256 L 1101 737 L 812 168 L 810 165 L 620 165 Z " /><path fill="rgb(23,49,71)" stroke="rgb(23,49,71)" stroke-width="1" opacity="0.9882352941176471" d="M 537.5 751 Q 540.3 752.3 538 753.5 L 513.5 801 L 511.5 801 L 297.5 801 L 296.5 800 L 293.5 805 L 294 803.5 L 318 754 L 320 753.5 L 319.5 752 L 321.5 753 L 537 753 L 537.5 751 Z " /><path fill="rgb(23,49,71)" stroke="rgb(23,49,71)" stroke-width="1" opacity="0.9882352941176471" d="M 891.5 751 L 892 753 L 1107.5 753 L 1108.5 752 L 1109 754 Q 1111.7 752.9 1111 755.5 L 1136 804.5 L 1134 803.5 L 1132.5 800 L 1131.5 801 L 917 801 L 918 804.5 L 916 803.5 L 893 758.5 L 893 755 L 891 754.5 L 891 752.5 L 891.5 751 Z " /><path fill="rgb(13,39,64)" stroke="rgb(13,39,64)" stroke-width="1" opacity="0.996078431372549" d="M 619.5 165 L 809.5 165 L 812 167.5 L 820 184.5 L 819 184.5 L 809.5 166 L 619.5 166 L 618 167.5 L 618.5 169 L 617 169.5 L 617.5 171 L 616 171.5 L 616.5 173 L 615 173.5 L 615.5 175 L 614 175.5 L 614.5 177 Q 612.3 176.3 613 178.5 L 601 204 L 599 203.5 L 617 167.5 L 619.5 165 Z " /><path fill="rgb(13,39,64)" stroke="rgb(13,39,64)" stroke-width="1" opacity="0.996078431372549" d="M 820.5 186 L 830 203.5 L 828 202.5 L 820.5 186 Z " /><path fill="rgb(13,39,64)" stroke="rgb(13,39,64)" stroke-width="1" opacity="0.996078431372549" d="M 830.5 205 L 836 214.5 L 834 213.5 L 830.5 205 Z " /><path fill="rgb(13,39,64)" stroke="rgb(13,39,64)" stroke-width="1" opacity="0.996078431372549" d="M 597.5 207 L 599 207.5 L 597 208.5 L 597.5 210 L 596 210.5 L 596.5 212 L 595 212.5 L 595.5 214 Q 592.8 212.8 595 211.5 L 597.5 207 Z " /><path fill="rgb(13,39,64)" stroke="rgb(13,39,64)" stroke-width="1" opacity="0.996078431372549" d="M 593.5 214 L 594.5 216 L 593 216.5 L 593.5 218 Q 590.8 216.8 593 215.5 L 593.5 214 Z " /><path fill="rgb(13,39,64)" stroke="rgb(13,39,64)" stroke-width="1" opacity="0.996078431372549" d="M 836.5 216 L 847 237.5 L 846 237.5 L 836 217.5 L 836.5 216 Z " /><path fill="rgb(13,39,64)" stroke="rgb(13,39,64)" stroke-width="1" opacity="0.996078431372549" d="M 591.5 218 L 592.5 220 L 591 220.5 L 591.5 222 L 590 222.5 L 590.5 224 L 589 224.5 L 589.5 226 L 588 226.5 L 588.5 228 L 587 228.5 L 587.5 230 Q 585.3 229.3 586 231.5 L 571 263 L 569 263.5 L 569.5 265 L 568 265.5 L 568.5 267 L 567 267.5 L 567.5 269 L 566 269.5 L 566.5 271 L 565 271.5 L 565.5 273 L 564 273.5 L 564.5 275 Q 561.8 273.8 564 272.5 L 591.5 218 Z " /><path fill="rgb(13,39,64)" stroke="rgb(13,39,64)" stroke-width="1" opacity="0.996078431372549" d="M 847.5 239 L 856 254.5 L 854 253.5 L 847.5 239 Z " /><path fill="rgb(13,39,64)" stroke="rgb(13,39,64)" stroke-width="1" opacity="0.996078431372549" d="M 857.5 258 L 860 262.5 L 859 262.5 L 857.5 258 Z " /><path fill="rgb(13,39,64)" stroke="rgb(13,39,64)" stroke-width="1" opacity="0.996078431372549" d="M 860.5 264 L 881 304.5 L 880 304.5 L 860.5 264 Z " /><path fill="rgb(13,39,64)" stroke="rgb(13,39,64)" stroke-width="1" opacity="0.996078431372549" d="M 562.5 275 L 563.5 277 L 562 277.5 L 562.5 279 L 561 279.5 L 561.5 281 Q 559.3 280.3 560 282.5 L 547 310 L 545 309.5 L 562.5 275 Z " /><path fill="rgb(13,39,64)" stroke="rgb(13,39,64)" stroke-width="1" opacity="0.996078431372549" d="M 881.5 306 L 882.5 308 L 881.5 306 Z " /><path fill="rgb(13,39,64)" stroke="rgb(13,39,64)" stroke-width="1" opacity="0.996078431372549" d="M 884.5 311 L 889 318.5 L 887 317.5 L 884.5 311 Z " /><path fill="rgb(13,39,64)" stroke="rgb(13,39,64)" stroke-width="1" opacity="0.996078431372549" d="M 543.5 313 L 545 313.5 L 539 326 L 537 326.5 L 537.5 328 L 536 328.5 L 536.5 330 L 535 330.5 L 535.5 332 Q 533.3 331.3 534 333.5 L 532.5 336 L 532 334.5 L 543.5 313 Z " /><path fill="rgb(13,39,64)" stroke="rgb(13,39,64)" stroke-width="1" opacity="0.996078431372549" d="M 889.5 320 L 910 360.5 L 908 359.5 L 893 330.5 L 889.5 320 Z " /><path fill="rgb(13,39,64)" stroke="rgb(13,39,64)" stroke-width="1" opacity="0.996078431372549" d="M 531.5 337 L 531 338.5 L 520 363 L 518 362.5 L 531.5 337 Z " /><path fill="rgb(13,39,64)" stroke="rgb(13,39,64)" stroke-width="1" opacity="0.996078431372549" d="M 911.5 364 L 916 371.5 L 914 370.5 L 911.5 364 Z " /><path fill="rgb(13,39,64)" stroke="rgb(13,39,64)" stroke-width="1" opacity="0.996078431372549" d="M 515.5 368 L 517 368.5 L 515 369.5 L 515.5 371 L 514 371.5 L 514 373.5 L 508 387 L 506 387.5 L 506.5 389 L 505 389.5 L 505.5 391 Q 503.3 390.3 504 392.5 L 480 442 Q 477.3 440.9 478 443.5 L 477 443.5 L 515.5 368 Z " /><path fill="rgb(13,39,64)" stroke="rgb(13,39,64)" stroke-width="1" opacity="0.996078431372549" d="M 916.5 374 L 921 382.5 L 920 382.5 L 916.5 374 Z " /><path fill="rgb(13,39,64)" stroke="rgb(13,39,64)" stroke-width="1" opacity="0.996078431372549" d="M 921.5 384 L 937 413.5 L 935 412.5 L 922 387.5 L 921.5 384 Z " /><path fill="rgb(13,39,64)" stroke="rgb(13,39,64)" stroke-width="1" opacity="0.996078431372549" d="M 714.5 405 L 716 409 L 718 409.5 L 716 410.5 L 714.5 407 L 712.5 411 L 712 409.5 L 714.5 405 Z " /><path fill="rgb(13,39,64)" stroke="rgb(13,39,64)" stroke-width="1" opacity="0.996078431372549" d="M 718.5 411 L 718.5 413 L 720 413.5 L 719.5 415 L 721 415.5 L 720.5 417 L 722 417.5 L 721.5 419 L 723 419.5 L 721 420.5 L 717 412.5 L 718.5 411 Z " /><path fill="rgb(13,39,64)" stroke="rgb(13,39,64)" stroke-width="1" opacity="0.996078431372549" d="M 711.5 412 L 711 413.5 L 707.5 421 L 707 419.5 L 711.5 412 Z " /><path fill="rgb(13,39,64)" stroke="rgb(13,39,64)" stroke-width="1" opacity="0.996078431372549" d="M 723.5 421 L 723.5 423 L 725 423.5 L 725 425.5 L 741 457.5 L 740 457.5 L 722 422.5 L 723.5 421 Z " /><path fill="rgb(13,39,64)" stroke="rgb(13,39,64)" stroke-width="1" opacity="0.996078431372549" d="M 940.5 421 L 944 427.5 L 943 427.5 L 940.5 421 Z " /><path fill="rgb(13,39,64)" stroke="rgb(13,39,64)" stroke-width="1" opacity="0.996078431372549" d="M 705.5 424 L 705 425.5 L 688.5 458 L 688 456.5 L 705.5 424 Z " /><path fill="rgb(13,39,64)" stroke="rgb(13,39,64)" stroke-width="1" opacity="0.996078431372549" d="M 944.5 429 L 965 468.5 L 963 467.5 L 944.5 429 Z " /><path fill="rgb(13,39,64)" stroke="rgb(13,39,64)" stroke-width="1" opacity="0.996078431372549" d="M 476.5 445 L 476 446.5 L 455 490.5 L 450 497.5 L 439 521.5 L 411.5 573 L 412 571.5 L 476.5 445 Z " /><path fill="rgb(13,39,64)" stroke="rgb(13,39,64)" stroke-width="1" opacity="0.996078431372549" d="M 687.5 459 L 687 460.5 L 681.5 472 L 681 470.5 L 687.5 459 Z " /><path fill="rgb(13,39,64)" stroke="rgb(13,39,64)" stroke-width="1" opacity="0.996078431372549" d="M 743.5 460 L 743.5 462 L 745 462.5 L 744.5 464 L 746 464.5 L 745.5 466 L 747 466.5 L 746.5 468 L 748 468.5 L 747.5 470 L 749 470.5 L 748.5 472 L 750 472.5 L 749.5 474 L 751 474.5 L 749 475.5 L 742 461.5 L 743.5 460 Z " /><path fill="rgb(13,39,64)" stroke="rgb(13,39,64)" stroke-width="1" opacity="0.996078431372549" d="M 966.5 472 L 993 523.5 L 991 522.5 L 966.5 472 Z " /><path fill="rgb(13,39,64)" stroke="rgb(13,39,64)" stroke-width="1" opacity="0.996078431372549" d="M 680.5 473 L 680 474.5 L 679.5 476 L 679 474.5 L 680.5 473 Z " /><path fill="rgb(13,39,64)" stroke="rgb(13,39,64)" stroke-width="1" opacity="0.996078431372549" d="M 751.5 476 L 750.5 478 L 751.5 476 Z " /><path fill="rgb(13,39,64)" stroke="rgb(13,39,64)" stroke-width="1" opacity="0.996078431372549" d="M 678.5 477 L 678 478.5 L 659.5 514 L 660 512.5 L 678.5 477 Z " /><path fill="rgb(13,39,64)" stroke="rgb(13,39,64)" stroke-width="1" opacity="0.996078431372549" d="M 751.5 479 L 754 481.5 L 766 506.5 L 765 506.5 L 751.5 479 Z " /><path fill="rgb(13,39,64)" stroke="rgb(13,39,64)" stroke-width="1" opacity="0.996078431372549" d="M 766.5 508 L 768 510.5 L 767 510.5 L 766.5 508 Z " /><path fill="rgb(13,39,64)" stroke="rgb(13,39,64)" stroke-width="1" opacity="0.996078431372549" d="M 770.5 513 L 770.5 515 L 772 515.5 L 771.5 517 L 773 517.5 L 771 518.5 L 769 514.5 L 770.5 513 Z " /><path fill="rgb(13,39,64)" stroke="rgb(13,39,64)" stroke-width="1" opacity="0.996078431372549" d="M 658.5 516 L 658 517.5 L 656.5 520 L 657 518.5 L 658.5 516 Z " /><path fill="rgb(13,39,64)" stroke="rgb(13,39,64)" stroke-width="1" opacity="0.996078431372549" d="M 773.5 519 L 772.5 521 L 773.5 519 Z " /><path fill="rgb(13,39,64)" stroke="rgb(13,39,64)" stroke-width="1" opacity="0.996078431372549" d="M 774.5 521 L 774.5 523 L 776 523.5 L 775.5 525 L 777 525.5 L 776.5 527 L 778 527.5 L 778 529.5 L 793 559.5 L 792 559.5 L 773 522.5 L 774.5 521 Z " /><path fill="rgb(13,39,64)" stroke="rgb(13,39,64)" stroke-width="1" opacity="0.996078431372549" d="M 653.5 526 L 653 527.5 L 652.5 529 L 652 527.5 L 653.5 526 Z " /><path fill="rgb(13,39,64)" stroke="rgb(13,39,64)" stroke-width="1" opacity="0.996078431372549" d="M 994.5 527 L 1098 730.5 L 1097 730.5 L 1036 611.5 L 1024 585.5 L 1010 560.5 L 994 528.5 L 994.5 527 Z " /><path fill="rgb(13,39,64)" stroke="rgb(13,39,64)" stroke-width="1" opacity="0.996078431372549" d="M 650.5 532 L 650 533.5 L 635.5 562 L 635 560.5 L 650.5 532 Z " /><path fill="rgb(13,39,64)" stroke="rgb(13,39,64)" stroke-width="1" opacity="0.996078431372549" d="M 793.5 561 L 795 563.5 L 794 563.5 L 793.5 561 Z " /><path fill="rgb(13,39,64)" stroke="rgb(13,39,64)" stroke-width="1" opacity="0.996078431372549" d="M 634.5 563 L 634 564.5 L 632.5 568 L 632 566.5 L 634.5 563 Z " /><path fill="rgb(13,39,64)" stroke="rgb(13,39,64)" stroke-width="1" opacity="0.996078431372549" d="M 797.5 566 L 796.5 568 L 797.5 566 Z " /><path fill="rgb(13,39,64)" stroke="rgb(13,39,64)" stroke-width="1" opacity="0.996078431372549" d="M 798.5 568 L 798.5 570 L 800 570.5 L 799.5 572 L 801 572.5 L 800.5 574 L 802 574.5 L 800.5 575 L 797 569.5 L 798.5 568 Z " /><path fill="rgb(13,39,64)" stroke="rgb(13,39,64)" stroke-width="1" opacity="0.996078431372549" d="M 628.5 574 L 629 575.5 L 627.5 578 L 627 576.5 L 628.5 574 Z " /><path fill="rgb(13,39,64)" stroke="rgb(13,39,64)" stroke-width="1" opacity="0.996078431372549" d="M 801 576 L 803 576.5 L 802.5 578 L 804 578.5 L 803.5 580 L 805 580.5 L 805 582.5 L 820 612.5 L 819 612.5 L 801 576 Z " /><path fill="rgb(13,39,64)" stroke="rgb(13,39,64)" stroke-width="1" opacity="0.996078431372549" d="M 408.5 578 L 409 579.5 L 381.5 632 L 382 630.5 L 408.5 578 Z " /><path fill="rgb(13,39,64)" stroke="rgb(13,39,64)" stroke-width="1" opacity="0.996078431372549" d="M 625.5 581 L 625 582.5 L 621.5 589 L 622 587.5 L 625.5 581 Z " /><path fill="rgb(13,39,64)" stroke="rgb(13,39,64)" stroke-width="1" opacity="0.996078431372549" d="M 620.5 590 L 621 591.5 L 607.5 617 L 607 615.5 L 620.5 590 Z " /><path fill="rgb(13,39,64)" stroke="rgb(13,39,64)" stroke-width="1" opacity="0.996078431372549" d="M 606.5 618 L 606 619.5 L 605.5 621 L 605 619.5 L 606.5 618 Z " /><path fill="rgb(13,39,64)" stroke="rgb(13,39,64)" stroke-width="1" opacity="0.996078431372549" d="M 822.5 618 L 825 619.5 L 824.5 621 L 826 621.5 L 825.5 623 L 827 623.5 L 826.5 625 L 828 625.5 L 826 626.5 L 822.5 618 Z " /><path fill="rgb(13,39,64)" stroke="rgb(13,39,64)" stroke-width="1" opacity="0.996078431372549" d="M 604.5 622 L 604 623.5 L 602.5 627 L 602 625.5 L 604.5 622 Z " /><path fill="rgb(13,39,64)" stroke="rgb(13,39,64)" stroke-width="1" opacity="0.996078431372549" d="M 828.5 627 L 828.5 629 L 830 629.5 L 829.5 631 L 831 631.5 L 830.5 633 L 832 633.5 L 832 635.5 L 845 660.5 L 843 659.5 L 827 628.5 L 828.5 627 Z " /><path fill="rgb(13,39,64)" stroke="rgb(13,39,64)" stroke-width="1" opacity="0.996078431372549" d="M 380.5 633 L 380 634.5 L 364 668.5 L 332.5 729 L 332 727.5 L 380.5 633 Z " /><path fill="rgb(13,39,64)" stroke="rgb(13,39,64)" stroke-width="1" opacity="0.996078431372549" d="M 597.5 636 L 597 637.5 L 579.5 672 L 579 670.5 L 597.5 636 Z " /><path fill="rgb(13,39,64)" stroke="rgb(13,39,64)" stroke-width="1" opacity="0.996078431372549" d="M 845.5 662 L 850 672 L 852 672.5 L 850 673.5 L 845 663.5 L 845.5 662 Z " /><path fill="rgb(13,39,64)" stroke="rgb(13,39,64)" stroke-width="1" opacity="0.996078431372549" d="M 852.5 674 L 852.5 676 L 854 676.5 L 853.5 678 L 855 678.5 L 854.5 680 L 856 680.5 L 855.5 682 L 857 682.5 L 856.5 684 L 858 684.5 L 857.5 686 L 859 686.5 L 858.5 688 L 860 688.5 L 858.5 689 L 851 675.5 L 852.5 674 Z " /><path fill="rgb(13,39,64)" stroke="rgb(13,39,64)" stroke-width="1" opacity="0.996078431372549" d="M 570.5 689 L 570 690.5 L 567.5 695 L 568 693.5 L 570.5 689 Z " /><path fill="rgb(13,39,64)" stroke="rgb(13,39,64)" stroke-width="1" opacity="0.996078431372549" d="M 859.5 690 L 876 722.5 L 875 722.5 L 859 691.5 L 859.5 690 Z " /><path fill="rgb(13,39,64)" stroke="rgb(13,39,64)" stroke-width="1" opacity="0.996078431372549" d="M 566.5 696 L 567 697.5 L 553.5 723 L 553 721.5 L 566.5 696 Z " /><path fill="rgb(13,39,64)" stroke="rgb(13,39,64)" stroke-width="1" opacity="0.996078431372549" d="M 876.5 724 L 878 726.5 L 877 726.5 L 876.5 724 Z " /><path fill="rgb(13,39,64)" stroke="rgb(13,39,64)" stroke-width="1" opacity="0.996078431372549" d="M 331.5 730 L 331 731.5 L 325.5 741 L 327 738.5 L 331.5 730 Z " /><path fill="rgb(13,39,64)" stroke="rgb(13,39,64)" stroke-width="1" opacity="0.996078431372549" d="M 549.5 730 L 549 731.5 L 548.5 733 L 548 731.5 L 549.5 730 Z " /><path fill="rgb(13,39,64)" stroke="rgb(13,39,64)" stroke-width="1" opacity="0.996078431372549" d="M 879.5 730 L 882 731.5 L 880 732.5 L 879.5 730 Z " /><path fill="rgb(13,39,64)" stroke="rgb(13,39,64)" stroke-width="1" opacity="0.996078431372549" d="M 1098.5 732 L 1104 740.5 L 1101 738.5 L 1098.5 732 Z " /><path fill="rgb(13,39,64)" stroke="rgb(13,39,64)" stroke-width="1" opacity="0.996078431372549" d="M 882.5 733 L 882.5 735 L 884 735.5 L 883.5 737 L 885 737.5 L 885 739.5 L 884.5 741 L 881 734.5 L 882.5 733 Z " /><path fill="rgb(13,39,64)" stroke="rgb(13,39,64)" stroke-width="1" opacity="0.996078431372549" d="M 546.5 736 L 546 737.5 L 545.5 739 L 545 737.5 L 546.5 736 Z " /><path fill="rgb(13,39,64)" stroke="rgb(13,39,64)" stroke-width="1" opacity="0.996078431372549" d="M 1104.5 742 L 1106 744.5 L 1104 743.5 L 1104.5 742 Z " /><path fill="rgb(14,40,65)" stroke="rgb(14,40,65)" stroke-width="1" opacity="1" d="M 619.5 166 L 809.5 166 L 811 167.5 L 819 185 L 821 185.5 L 821 187.5 L 836 215.5 L 846 238 L 848 238.5 L 848 240.5 L 859 263 L 861 263.5 L 861 265.5 L 880 305 L 882 305.5 Q 879.5 307 883 308.5 L 893.5 331 L 895 330.5 L 894 332.5 L 908 359.5 L 911 362.5 L 914 370.5 L 917 373.5 L 917 375.5 L 920 383 L 922 383.5 L 922 385.5 L 938 418 L 940 418.5 L 939.5 420 L 941 420.5 L 941 422.5 L 943 428 L 945 428.5 L 945 430.5 L 953 448.5 L 965 469.5 L 981 503.5 L 993 524.5 L 1010 560.5 L 1024 585.5 L 1036 611.5 L 1056 648.5 L 1097 731 L 1099 731.5 L 1099 733.5 L 1110 753.5 L 1109 753.5 L 1108.5 752 L 1107.5 753 L 892.5 753 L 891.5 754 L 884 738.5 L 884.5 737 L 883 736.5 L 883.5 735 L 881 733.5 L 882 731.5 L 879 729.5 L 859.5 690 L 858 689.5 L 860 688.5 L 858 687.5 L 858.5 686 L 857 685.5 L 857.5 684 L 856 683.5 L 856.5 682 L 855 681.5 L 855.5 680 L 854 679.5 L 854.5 678 L 853 677.5 L 853.5 676 L 851 674.5 L 852 672.5 L 850 672 L 846 662 L 844 661.5 L 844 659.5 L 831 634.5 L 831.5 633 L 830 632.5 L 830.5 631 L 829 630.5 L 829.5 629 L 827 627.5 L 828 625.5 L 826 624.5 L 826.5 623 L 825 622.5 L 825.5 621 L 824 620.5 L 824.5 619 L 822 617.5 L 804 581.5 L 804.5 580 L 803 579.5 L 803.5 578 L 802 577.5 L 802.5 576 L 800 575.5 L 802 574.5 L 800 573.5 L 800.5 572 L 799 571.5 L 799.5 570 L 797 568.5 L 777 528.5 L 777.5 527 L 776 526.5 L 776.5 525 L 775 524.5 L 775.5 523 L 773 521.5 L 772 518.5 L 772.5 517 L 771 516.5 L 771.5 515 L 769 513.5 L 758.5 491 L 757 491.5 L 758 489.5 L 750 475.5 L 750.5 474 L 749 473.5 L 749.5 472 L 748 471.5 L 748.5 470 L 747 469.5 L 747.5 468 L 746 467.5 L 746.5 466 L 745 465.5 L 745.5 464 L 744 463.5 L 744.5 462 L 742 460.5 L 724 424.5 L 724.5 423 L 722 421.5 L 723 419.5 L 721 418.5 L 721.5 417 L 720 416.5 L 720.5 415 L 719 414.5 L 719.5 413 L 717 411.5 L 718 409.5 L 716 409 L 714.5 405 L 698 437.5 L 698.5 439 L 697 438.5 L 674 484.5 L 674.5 486 L 673 485.5 L 670 492.5 L 670.5 494 L 669 493.5 L 659 513.5 L 660 514.5 L 657 517.5 L 656 519.5 L 656.5 521 Q 653.9 520.2 655 523.5 L 645 541.5 L 645.5 543 L 644 542.5 L 645 544.5 L 643 544.5 L 632 566.5 L 630 574 Q 627.3 572.9 628 575.5 L 621 588.5 L 621.5 590 L 619 591.5 L 620 593.5 L 618 593.5 L 616 598.5 L 616.5 600 L 615 599.5 L 602 625.5 L 602 629 Q 599 627.8 600 631.5 L 591 647.5 L 591.5 649 L 590 648.5 L 574 681.5 L 574 684 Q 571 682.8 572 686.5 L 567 694.5 L 567.5 696 Q 565.3 695.3 566 697.5 L 564 700.5 L 564.5 702 L 563 701.5 L 538.5 752 L 537 751.5 L 536.5 753 L 321.5 753 Q 318.8 751.8 321 750.5 L 323 744.5 L 332 730.5 L 331.5 729 Q 333.8 729.8 333 727.5 L 423 551.5 L 422.5 550 L 424 550.5 L 477 445.5 L 476.5 444 L 478 444 L 478 442 Q 480.7 443.1 480 440.5 L 501 399.5 L 504 391 L 506 390.5 L 505.5 389 L 507 388.5 L 506.5 387 Q 508.8 387.8 508 385.5 L 515 372.5 L 514.5 371 L 516 370.5 L 515.5 369 L 517 368.5 L 516.5 367 L 518 366.5 L 517.5 365 L 519 364.5 L 518.5 363 Q 520.8 363.8 520 361.5 L 532 337.5 L 531.5 336 Q 533.8 336.8 533 334.5 L 534 332 L 536 331.5 L 535.5 330 L 537 329.5 L 536.5 328 L 538 327.5 L 537.5 326 Q 539.8 326.8 539 324.5 L 545 313.5 L 544.5 312 L 546 311.5 L 545.5 310 Q 547.8 310.8 547 308.5 L 560 281 L 562 280.5 L 561.5 279 L 563 278.5 L 562.5 277 L 564 276.5 L 563 274.5 L 566 272.5 L 565.5 271 L 567 270.5 L 566.5 269 L 568 268.5 L 567.5 267 L 569 266.5 L 568.5 265 L 570 264.5 L 569.5 263 Q 571.8 263.8 571 261.5 L 586 230 L 588 229.5 L 587.5 228 L 589 227.5 L 588.5 226 L 590 225.5 L 589.5 224 L 591 223.5 L 590.5 222 L 592 221.5 L 591.5 220 L 593 219.5 L 592 217.5 L 595 215.5 L 594 213.5 L 597 211.5 L 596.5 210 L 598 209.5 L 597.5 208 L 599 207.5 L 598.5 206 L 600 205.5 L 599.5 204 Q 601.8 204.8 601 202.5 L 613 177 L 615 176.5 L 614.5 175 L 616 174.5 L 615.5 173 L 617 172.5 L 616.5 171 L 618 170.5 L 617.5 169 L 619 168.5 Q 616.8 167.3 619.5 166 Z " /><path fill="rgb(82,107,113)" stroke="rgb(82,107,113)" stroke-width="1" opacity="0.9921568627450981" d="M 468.5 887 L 469 888.5 L 468.5 891 L 467 891 L 467 895 L 465.5 895 L 465.5 897 L 464 897.5 L 464.5 899 Q 462.3 898.3 463 900.5 L 444 940.5 L 405 1014.5 L 396 1034.5 L 392.5 1039 L 391 1038.5 Q 390.3 1040.8 392.5 1040 L 392 1041.5 L 389.5 1045 L 390 1043.5 L 389.5 1042 L 388.5 1043 L 172.5 1043 L 171.5 1044 L 173 1041.5 L 173 1038.5 L 221 943.5 L 242 902.5 L 248 894.5 L 247 892.5 L 250.5 890 L 466.5 890 L 468 888.5 L 468.5 887 Z " /><path fill="rgb(82,107,113)" stroke="rgb(82,107,113)" stroke-width="1" opacity="0.9921568627450981" d="M 960.5 887 L 962.5 890 L 1178.5 890 L 1181 891 L 1259 1044.5 L 1256.5 1043 L 1040.5 1043 L 1039 1041.5 L 1038.5 1040 Q 1036.7 1042.8 1035 1038.5 L 1024 1014.5 L 1011 991.5 L 1005 977.5 L 962 894.5 L 962.5 893 L 961 892.5 L 961 890.5 L 960.5 887 Z " /><path fill="rgb(82,107,113)" stroke="rgb(82,107,113)" stroke-width="1" opacity="0.9921568627450981" d="M 1178.5 887 L 1177.5 889 L 1178.5 887 Z " /><path fill="rgb(82,107,113)" stroke="rgb(82,107,113)" stroke-width="1" opacity="0.9921568627450981" d="M 1259.5 1046 L 1260.5 1048 L 1259.5 1046 Z " /><path fill="rgb(82,107,113)" stroke="rgb(82,107,113)" stroke-width="1" opacity="0.9921568627450981" d="M 388.5 1048 L 387.5 1050 L 388.5 1048 Z " /><path fill="rgb(82,107,113)" stroke="rgb(82,107,113)" stroke-width="1" opacity="0.9921568627450981" d="M 1040.5 1048 L 1041.5 1050 L 1040.5 1048 Z " /><path fill="rgb(46,72,88)" stroke="rgb(46,72,88)" stroke-width="1" opacity="0.9921568627450981" d="M 296.5 800 L 297.5 801 L 511.5 801 Q 512.8 798.8 514 801.5 L 512 802.5 L 512.5 804 L 511 804.5 Q 513.5 806 510 807.5 Q 490.8 850.3 468.5 890 L 466.5 890 L 250.5 890 L 249.5 891 L 249 889.5 L 292 805 L 294 804.5 L 293.5 803 L 295 803.5 L 296.5 800 Z " /><path fill="rgb(46,72,88)" stroke="rgb(46,72,88)" stroke-width="1" opacity="0.9921568627450981" d="M 916.5 800 L 917.5 801 L 1131.5 801 L 1133 800.5 L 1134.5 804 L 1136 803.5 L 1135.5 805 Q 1137.8 804.3 1137 806.5 L 1180 890.5 L 1178.5 890 L 962.5 890 L 961.5 889 L 961 890.5 L 961.5 892 L 917 805.5 L 917 803.5 L 916.5 800 Z " /><path fill="rgb(46,72,88)" stroke="rgb(46,72,88)" stroke-width="1" opacity="0.9921568627450981" d="M 247.5 894 L 246.5 896 L 247.5 894 Z " /><path fill="rgb(144,170,157)" stroke="rgb(144,170,157)" stroke-width="1" opacity="0.9882352941176471" d="M 1034.5 1033 L 1033.5 1035 L 1034.5 1033 Z " /><path fill="rgb(144,170,157)" stroke="rgb(144,170,157)" stroke-width="1" opacity="0.9882352941176471" d="M 1035.5 1035 L 1040.5 1043 L 1256.5 1043 L 1257.5 1042 Q 1255.9 1043.8 1259 1045.5 L 1367 1255.5 L 1370 1264 L 1150.5 1264 L 1150 1262.5 L 1037 1041.5 L 1037 1039.5 L 1035.5 1035 Z " /><path fill="rgb(144,170,157)" stroke="rgb(144,170,157)" stroke-width="1" opacity="0.9882352941176471" d="M 392.5 1036 L 394 1038.5 L 391 1040 L 390 1043.5 Q 392.2 1044.8 389.5 1046 L 388 1046.5 Q 390.5 1048 387 1049.5 Q 388 1053.3 385 1052 L 385 1055.5 L 300 1221.5 L 300.5 1223 L 299 1223.5 L 299.5 1225 L 298 1225.5 L 298.5 1227 L 297 1227.5 L 297.5 1229 L 296 1229.5 L 296.5 1231 L 295 1231.5 L 295.5 1233 L 294 1233.5 L 294.5 1235 L 293 1235.5 L 293.5 1237 L 292 1237.5 L 292.5 1239 L 291 1239.5 L 291.5 1241 Q 289.3 1240.3 290 1242.5 L 279 1264 L 59.5 1264 L 59 1261.5 L 170 1044 L 172 1043.5 L 172 1041.5 L 172.5 1040 L 173 1041.5 L 172.5 1043 L 388.5 1043 L 390 1041.5 L 392.5 1036 Z " /></svg>